<?xml version="1.0" standalone="no"?>
<!DOCTYPE svg PUBLIC "-//W3C//DTD SVG 20010904//EN"
 "http://www.w3.org/TR/2001/REC-SVG-20010904/DTD/svg10.dtd">
<svg version="1.0" xmlns="http://www.w3.org/2000/svg"
 width="858.000000pt" height="687.000000pt" viewBox="0 0 858.000000 687.000000"
 preserveAspectRatio="xMidYMid meet">

<g transform="translate(0.000000,687.000000) scale(0.100000,-0.100000)"
fill="#000000" stroke="none">
<path d="M0 3440 l0 -3430 4290 0 4290 0 0 3430 0 3430 -4290 0 -4290 0 0
-3430z m5713 2560 c53 -93 97 -172 97 -176 0 -15 -186 -333 -195 -334 -5 0
-53 74 -105 165 l-95 165 -176 0 -175 0 -97 -167 -96 -168 171 -5 172 -5 31
-55 c229 -400 350 -607 360 -618 10 -11 51 54 206 323 107 184 198 337 203
338 9 2 196 -317 196 -335 0 -5 -86 -159 -191 -341 -105 -183 -218 -379 -252
-437 -33 -58 -122 -211 -197 -340 -111 -190 -412 -711 -636 -1102 l-39 -67
-205 -1 -205 0 -97 170 -96 170 200 2 199 3 88 150 87 151 -97 164 c-53 90
-100 165 -105 167 -5 1 -46 -62 -90 -140 l-82 -142 -401 -5 -401 -5 59 -100
c176 -304 331 -575 331 -580 0 -3 -89 -5 -198 -5 l-199 0 -163 283 c-90 155
-198 341 -240 412 -42 72 -159 274 -260 450 -101 176 -290 506 -421 732 l-238
413 91 157 c50 87 98 166 106 176 13 15 36 17 203 17 103 0 190 -3 192 -7 3
-5 -37 -80 -88 -168 -52 -88 -94 -167 -95 -175 0 -8 37 -78 83 -155 l82 -140
198 -3 c108 -1 197 1 197 5 0 4 -36 69 -80 144 -44 75 -80 141 -80 147 0 6 88
162 195 348 107 185 195 339 195 341 0 1 -178 3 -396 3 -315 0 -395 3 -392 13
2 7 45 85 97 175 l93 162 1327 0 1327 0 97 -170z m-2973 -3815 l0 -176 88 3
87 3 3 173 2 172 74 0 73 0 5 -427 c4 -307 2 -430 -6 -436 -6 -4 -40 -6 -76
-5 l-65 3 -3 183 -2 182 -90 0 -90 0 -2 -182 -3 -183 -75 0 -75 0 -3 433 -2
432 80 0 80 0 0 -175z m740 168 c1 -5 34 -197 74 -428 40 -231 71 -423 69
-427 -5 -9 -114 -11 -137 -2 -9 3 -18 24 -22 50 l-6 45 -82 -3 -81 -3 -3 -35
c-2 -19 -8 -41 -14 -47 -15 -18 -137 -17 -144 0 -3 10 103 635 142 830 l6 27
99 0 c54 0 99 -3 99 -7z m382 -350 l3 -358 128 -3 128 -3 -3 -72 -3 -72 -205
0 -205 0 -3 433 -2 432 80 0 80 0 2 -357z m714 -68 c40 -231 71 -426 69 -433
-3 -9 -25 -12 -77 -10 -70 3 -73 4 -76 28 -8 72 -5 70 -92 70 l-79 0 -6 -37
c-11 -64 -9 -63 -84 -63 -38 0 -72 4 -75 9 -3 4 24 170 59 367 36 197 70 390
77 427 l11 68 100 -3 101 -3 72 -420z m520 390 c66 -41 110 -115 119 -200 4
-35 5 -146 3 -247 -4 -208 -14 -243 -84 -311 -62 -60 -107 -72 -269 -72 l-140
0 -3 433 -2 433 163 -3 c162 -3 164 -3 213 -33z m367 18 c3 -10 5 -203 6 -430
l2 -412 -24 -6 c-12 -4 -48 -5 -78 -3 l-54 3 -3 433 -2 432 74 0 c63 0 75 -3
79 -17z m523 -7 c3 -13 4 -46 2 -73 l-3 -48 -128 -3 -127 -3 0 -99 0 -100 125
0 c142 0 139 2 133 -96 l-3 -49 -128 -3 -128 -3 3 -107 3 -107 125 -5 125 -5
0 -70 0 -70 -205 0 -205 0 -3 433 -2 432 205 0 205 0 6 -24z m-3225 -1017 c40
-14 99 -66 99 -88 0 -9 -19 -26 -42 -39 -41 -22 -42 -22 -62 -4 -30 27 -52 32
-72 18 -25 -19 -13 -39 32 -54 119 -42 164 -84 164 -156 0 -84 -63 -136 -165
-136 -66 0 -115 19 -150 56 -35 37 -31 55 16 82 l41 24 28 -27 c22 -21 35 -26
66 -23 34 3 39 6 39 28 0 21 -9 28 -73 51 -86 32 -107 49 -123 96 -22 68 7
133 74 164 49 22 80 24 128 8z m1101 -15 c37 -18 85 -60 99 -86 8 -14 1 -22
-40 -42 l-48 -25 -24 25 c-63 67 -172 37 -200 -56 -21 -69 40 -150 114 -150
34 0 83 24 96 47 8 16 12 16 50 -2 63 -28 67 -38 31 -78 -63 -72 -179 -98
-268 -61 -198 82 -184 373 22 440 49 16 123 11 168 -12z m880 16 c109 -31 152
-152 80 -225 -15 -16 -60 -43 -99 -61 -105 -48 -99 -63 30 -66 l102 -3 3 -47
3 -48 -182 0 -181 0 7 47 c10 65 42 130 79 157 17 13 59 36 93 51 34 15 65 35
68 44 7 18 -36 61 -61 61 -23 0 -71 -28 -78 -45 -4 -12 -15 -14 -48 -9 -24 3
-48 7 -55 9 -21 7 6 63 43 93 61 48 124 62 196 42z m418 -15 c44 -23 87 -88
101 -153 23 -112 -21 -231 -101 -273 -74 -40 -193 -15 -238 48 -64 92 -59 258
12 338 54 63 150 79 226 40z m413 -3 c51 -29 80 -79 74 -129 -6 -60 -37 -96
-109 -128 -64 -28 -98 -51 -98 -67 0 -4 47 -8 105 -8 l105 0 0 -50 0 -50 -181
0 -182 0 7 43 c17 107 71 174 167 208 82 28 97 60 45 94 -21 14 -31 15 -58 6
-18 -6 -40 -20 -48 -31 -12 -15 -24 -18 -62 -13 -55 6 -60 19 -28 70 18 31 57
57 110 74 37 12 117 2 153 -19z m362 9 c53 -24 91 -70 110 -133 19 -65 19
-111 0 -176 -29 -97 -89 -142 -187 -142 -75 0 -124 31 -160 99 -55 105 -29
273 51 330 61 44 123 51 186 22z m-2902 -4 c3 -7 5 -108 6 -225 l2 -212 -60 0
-61 0 0 218 c0 120 3 222 7 225 12 13 101 8 106 -6z m255 -87 c34 -52 66 -96
72 -98 5 -2 10 38 12 95 l3 98 50 0 50 0 3 -222 2 -223 -48 0 -49 0 -74 113
-74 112 -3 -112 -3 -113 -59 0 -60 0 0 218 c0 120 3 222 7 226 4 4 30 6 58 4
l50 -3 63 -95z m1000 43 l3 -53 -85 0 -86 0 0 -30 0 -29 78 -3 77 -3 3 -47 3
-47 -78 -3 -78 -3 0 -35 0 -35 83 -3 82 -3 0 -49 0 -50 -145 0 -145 0 0 218
c0 120 3 222 7 226 4 3 68 5 142 4 l136 -3 3 -52z"/>
<path d="M3768 5476 c-109 -189 -198 -347 -198 -350 0 -3 69 -124 154 -268
195 -335 356 -616 356 -623 0 -3 -89 -5 -199 -5 l-199 0 -84 148 -84 147 -197
3 c-120 1 -197 -1 -197 -7 0 -5 57 -108 126 -228 69 -120 151 -262 182 -316
l56 -97 405 2 404 3 198 345 c110 190 226 392 260 448 l60 104 100 -172 c86
-149 97 -175 88 -193 -7 -12 -45 -81 -86 -153 l-74 -132 94 -163 c52 -90 100
-164 106 -164 8 0 350 577 368 621 3 9 -134 255 -347 619 l-47 80 -521 5 -521
5 100 173 101 172 173 0 173 0 96 165 c53 90 96 167 96 170 0 3 -168 5 -372 5
l-373 0 -197 -344z"/>
<path d="M3349 1897 c-15 -89 -24 -165 -22 -169 7 -14 103 -9 103 5 0 28 -44
313 -49 319 -4 4 -18 -65 -32 -155z"/>
<path d="M4401 2070 c-15 -81 -51 -311 -51 -327 0 -21 5 -23 50 -23 60 0 58
-11 30 192 -19 130 -27 172 -29 158z"/>
<path d="M4880 1925 l0 -285 41 0 c57 0 104 25 123 65 13 27 16 71 16 229 0
130 -4 204 -12 221 -16 36 -57 55 -118 55 l-50 0 0 -285z"/>
<path d="M5038 1205 c-76 -42 -53 -235 28 -235 57 0 84 39 84 122 0 52 -27
118 -49 118 -5 0 -15 2 -23 5 -7 2 -25 -2 -40 -10z"/>
<path d="M5832 1204 c-37 -15 -47 -44 -46 -127 1 -68 29 -107 76 -107 56 0 84
52 76 145 -7 83 -45 115 -106 89z"/>
</g>
</svg>
